<?xml version="1.0" standalone="no"?><!DOCTYPE svg PUBLIC "-//W3C//DTD SVG 1.1//EN"
        "http://www.w3.org/Graphics/SVG/1.1/DTD/svg11.dtd">
<svg class="icon" width="200px" height="200.00px" viewBox="0 0 1024 1024" version="1.1"
     xmlns="http://www.w3.org/2000/svg">
    <path fill="#325d6d"
          d="M512 160a32 32 0 0 1 0 64 288 288 0 1 0 288 288 286.496 286.496 0 0 0-38.144-143.328 32 32 0 0 1 55.488-31.904A350.496 350.496 0 0 1 864 512c0 194.4-157.6 352-352 352S160 706.4 160 512 317.6 160 512 160z m160 0a96 96 0 0 1 96 96 32 32 0 0 1-63.776 3.744L704 256a32 32 0 0 0-63.776-3.744L640 256v256a128 128 0 1 1-63.968-110.848L576 256a96 96 0 0 1 96-96z m-160 288a64 64 0 1 0 0 128 64 64 0 0 0 0-128z"/>
</svg>