<?xml version="1.0" standalone="no"?><!DOCTYPE svg PUBLIC "-//W3C//DTD SVG 1.1//EN"
        "http://www.w3.org/Graphics/SVG/1.1/DTD/svg11.dtd">
<svg class="icon" width="200px" height="200.00px" viewBox="0 0 1024 1024" version="1.1"
     xmlns="http://www.w3.org/2000/svg">
    <path fill="#325d6d"
          d="M512 160a256 256 0 0 1 148.928 464.256C706.752 654.336 736 722.912 736 800a32 32 0 0 1-64 0c0-70.464-30.752-124.16-60.8-127.808L608 672h-192c-31.008 0-64 55.008-64 128a32 32 0 0 1-64 0c0-77.12 29.248-145.664 75.072-175.776A256 256 0 0 1 512 160z m0 64a192 192 0 1 0 0 384 192 192 0 0 0 0-384z m-64 128a32 32 0 0 1 32 32v32a32 32 0 0 1-64 0v-32a32 32 0 0 1 32-32z m128 0a32 32 0 0 1 32 32v32a32 32 0 0 1-64 0v-32a32 32 0 0 1 32-32z"/>
</svg>