<?xml version="1.0" standalone="no"?><!DOCTYPE svg PUBLIC "-//W3C//DTD SVG 1.1//EN"
        "http://www.w3.org/Graphics/SVG/1.1/DTD/svg11.dtd">
<svg class="icon" width="200px" height="200.00px" viewBox="0 0 1024 1024" version="1.1"
     xmlns="http://www.w3.org/2000/svg">
    <path fill="#325d6d"
          d="M512 224c75.296 0 143.808 28.896 195.136 76.16 80.224-17.92 138.88-11.168 163.2 30.912 25.472 44.16-4.544 107.136-70.4 173.6L800 512a288 288 0 0 1-438.848 245.376c-89.6 23.264-158.336 17.536-183.648-26.304-24.064-41.664-1.28-95.456 53.568-155.456A288 288 0 0 1 512 224z m217.28 342.72l-5.152 4.032-16.512 12.416c-5.632 4.16-11.36 8.288-17.184 12.384l-17.76 12.288a1240 1240 0 0 1-56.768 36.16l-19.968 11.776-20.16 11.424a1240 1240 0 0 1-59.744 31.072l-19.52 9.28c-6.496 2.976-12.928 5.856-19.296 8.64l-19.04 8.096-7.744 3.136a224.096 224.096 0 0 0 278.848-160.672zM256.48 645.088c-20.256 27.104-27.712 46.848-23.584 54.016 4.224 7.296 27.36 11.04 65.088 5.76a289.856 289.856 0 0 1-41.504-59.776zM512 288a224 224 0 0 0-139.648 399.136c58.112-18.304 124.928-48.32 191.584-86.784 65.984-38.08 124.864-80.48 169.664-121.312A224.096 224.096 0 0 0 512 288z m246.496 68.256l-3.904 0.448a286.72 286.72 0 0 1 31.616 67.008c24.32-30.752 32.96-53.248 28.704-60.64-3.968-6.848-24-10.432-56.416-6.816z"/>
</svg>