<?xml version="1.0" standalone="no"?><!DOCTYPE svg PUBLIC "-//W3C//DTD SVG 1.1//EN"
        "http://www.w3.org/Graphics/SVG/1.1/DTD/svg11.dtd">
<svg class="icon" width="200px" height="200.00px" viewBox="0 0 1024 1024" version="1.1"
     xmlns="http://www.w3.org/2000/svg">
    <path fill="#325d6d"
          d="M832 736a96 96 0 0 1-192 0v-96a96 96 0 0 1 128-90.528V480a256 256 0 0 0-511.872-8L256 480v69.44A96 96 0 0 1 384 640v96a96 96 0 0 1-192 0v-256C192 303.264 335.264 160 512 160c173.76 0 315.136 138.464 319.872 311.04L832 480zM288 608a32 32 0 0 0-32 32v96a32 32 0 0 0 64 0v-96a32 32 0 0 0-32-32z m448 0a32 32 0 0 0-32 32v96a32 32 0 0 0 64 0v-96a32 32 0 0 0-32-32z"/>
</svg>