<?xml version="1.0" standalone="no"?><!DOCTYPE svg PUBLIC "-//W3C//DTD SVG 1.1//EN"
        "http://www.w3.org/Graphics/SVG/1.1/DTD/svg11.dtd">
<svg class="icon" width="200px" height="200.00px" viewBox="0 0 1024 1024" version="1.1"
     xmlns="http://www.w3.org/2000/svg">
    <path fill="#325d6d"
          d="M576 192a128 128 0 1 1-60.96 240.576l-118.4 107.68c12.256 19.648 19.36 42.88 19.36 67.744l-0.032-1.376 202.176 47.36a128.064 128.064 0 0 1 111.456-77.824L736 576a128 128 0 1 1-127.296 141.568l-208-48.8a128 128 0 1 1-50.56-172.704l117.888-107.264A128 128 0 0 1 576 192z m160 448a64 64 0 1 0 0 128 64 64 0 0 0 0-128zM288 544a64 64 0 1 0 0 128 64 64 0 0 0 0-128z m288-288a64 64 0 1 0 0 128 64 64 0 0 0 0-128z"/>
</svg>