<?xml version="1.0" standalone="no"?><!DOCTYPE svg PUBLIC "-//W3C//DTD SVG 1.1//EN"
        "http://www.w3.org/Graphics/SVG/1.1/DTD/svg11.dtd">
<svg class="icon" width="200px" height="200.00px" viewBox="0 0 1024 1024" version="1.1"
     xmlns="http://www.w3.org/2000/svg">
    <path fill="#bfbfbf"
          d="M244.448 403.616a32 32 0 0 1 13.568 43.2 160 160 0 0 0 135.04 233.728l6.944 0.128H640v-24.32a32 32 0 0 1 48.128-27.616l96.48 56.288a32 32 0 0 1 0 55.264l-96.48 56.32A32 32 0 0 1 640 768.96v-24.32h-240a224 224 0 0 1-198.72-327.424 32 32 0 0 1 43.168-13.6z m151.2-156.032a32 32 0 0 1 4.352 16.128V288H640a224 224 0 0 1 198.72 327.456 32 32 0 1 1-56.736-29.6 160 160 0 0 0-135.04-233.728L640 352h-240v24.288a32 32 0 0 1-48.128 27.648l-96.48-56.32a32 32 0 0 1 0-55.264l96.48-56.288a32 32 0 0 1 43.776 11.52z"/>
</svg>